# xmcd CD database file
#
# Track frame offsets:
#	150
#	18300
#	39119
#	59042
#	77431
#	93254
#	108186
#	129988
#	149826
#	167165
#	185270
#
# Disc length: 2779 seconds
#
# Revision: 0
# Processed by: cddbd v1.5.2PL0 Copyright (c) Steve Scherf et al.
# Submitted via: jetAudio 7
#
DISCID=880ad90b
DTITLE=Behnam Safavi - Fogholadeh
DYEAR=1900
DGENRE=Pop
TTITLE0=Fogholadeh
TTITLE1=Khatereh
TTITLE2=Avalin Gharar
TTITLE3=Fahmid
TTITLE4=Ashti
TTITLE5=Begoo Are
TTITLE6=Rafigham Bash
TTITLE7=Yadete
TTITLE8=Chand Bar Ashegh Shodi
TTITLE9=Soe Tafahom
TTITLE10=Cheghad Khoobe
EXTD=
EXTT0=
EXTT1=
EXTT2=
EXTT3=
EXTT4=
EXTT5=
EXTT6=
EXTT7=
EXTT8=
EXTT9=
EXTT10=
PLAYORDER=
